<?xml version="1.0" encoding="utf-8"?>
<!-- Generator: Adobe Illustrator 16.0.0, SVG Export Plug-In . SVG Version: 6.00 Build 0)  -->
<!DOCTYPE svg PUBLIC "-//W3C//DTD SVG 1.1//EN" "http://www.w3.org/Graphics/SVG/1.1/DTD/svg11.dtd">
<svg version="1.1" xmlns="http://www.w3.org/2000/svg" xmlns:xlink="http://www.w3.org/1999/xlink" x="0px" y="0px"
	 width="351.412px" height="377.966px" viewBox="0 0 351.412 377.966" enable-background="new 0 0 351.412 377.966"
	 xml:space="preserve">
<g id="BACKGORUND">
</g>
<g id="OBJECTS">
	<g>
		<path fill="#DDDDDD" d="M49.423,44.486l2.164,5.696c-2.128,1.388-3.942,3.13-5.406,5.112l-5.57-2.504
			c-2.268-1.02-4.933-0.007-5.952,2.26c-1.019,2.267-0.008,4.933,2.261,5.952l5.57,2.503c-0.511,2.411-0.609,4.924-0.235,7.438
			l-5.696,2.164c-2.324,0.883-3.493,3.483-2.61,5.807c0.883,2.325,3.483,3.493,5.807,2.61l5.696-2.164
			c1.388,2.128,3.131,3.942,5.114,5.406l-2.504,5.571c-1.02,2.267-0.007,4.932,2.261,5.952c2.267,1.02,4.933,0.007,5.951-2.261
			l2.504-5.571c2.411,0.51,4.924,0.609,7.437,0.234l2.164,5.696c0.883,2.325,3.483,3.493,5.807,2.61
			c2.324-0.883,3.493-3.483,2.61-5.808l-2.164-5.695c2.128-1.389,3.942-3.131,5.406-5.113l5.571,2.504
			c2.267,1.02,4.933,0.007,5.952-2.26c0.509-1.134,0.512-2.367,0.102-3.445c-0.409-1.077-1.229-1.998-2.363-2.507l-5.571-2.504
			c0.511-2.411,0.609-4.924,0.235-7.438l5.696-2.163c2.324-0.883,3.493-3.483,2.61-5.808c-0.883-2.324-3.483-3.493-5.807-2.61
			l-5.696,2.164c-1.388-2.128-3.13-3.941-5.113-5.406l2.504-5.571c0.51-1.133,0.512-2.367,0.103-3.444
			c-0.409-1.077-1.229-1.998-2.363-2.508c-2.267-1.02-4.933-0.007-5.951,2.261l-2.504,5.571c-2.411-0.511-4.924-0.609-7.438-0.235
			l-2.164-5.696c-0.883-2.324-3.483-3.493-5.807-2.61C49.709,39.562,48.54,42.162,49.423,44.486z M71.299,76.72l-0.043-0.115
			c-0.64,0.615-1.336,1.157-2.057,1.661c-0.568,0.332-1.162,0.632-1.797,0.874c-6.232,2.367-13.227-0.777-15.594-7.009
			c-2.367-6.231,0.777-13.227,7.009-15.593c6.232-2.367,13.227,0.776,15.594,7.008c1.395,3.672,0.864,7.604-1.073,10.703
			c-0.005,0.001-0.009,0.003-0.014,0.005c-0.586,0.799-1.244,1.543-1.949,2.235l0.121,0.054
			C71.432,76.604,71.363,76.66,71.299,76.72z"/>
		<path fill="#DDDDDD" d="M95.532,6.609l0.172,4.311c-1.74,0.454-3.35,1.215-4.778,2.217l-3.177-2.933
			c-1.293-1.194-3.31-1.114-4.503,0.18c-1.194,1.292-1.114,3.31,0.18,4.504l3.177,2.933c-0.885,1.504-1.516,3.169-1.83,4.941
			l-4.31,0.172c-1.759,0.07-3.128,1.553-3.058,3.312c0.07,1.759,1.554,3.128,3.313,3.058l4.31-0.172
			c0.454,1.741,1.216,3.351,2.218,4.779l-2.933,3.177c-1.195,1.293-1.114,3.31,0.18,4.504c1.293,1.194,3.31,1.114,4.504-0.18
			l2.933-3.177c1.504,0.885,3.169,1.516,4.94,1.829l0.172,4.311c0.07,1.759,1.553,3.128,3.312,3.058s3.128-1.553,3.058-3.312
			l-0.172-4.311c1.741-0.454,3.351-1.215,4.779-2.217l3.178,2.934c1.292,1.194,3.31,1.114,4.503-0.18
			c0.597-0.647,0.876-1.474,0.843-2.29c-0.033-0.815-0.376-1.618-1.023-2.214l-3.178-2.934c0.885-1.504,1.516-3.169,1.83-4.941
			l4.31-0.172c1.759-0.07,3.128-1.553,3.058-3.312c-0.07-1.759-1.554-3.128-3.313-3.058l-4.31,0.172
			c-0.454-1.741-1.216-3.35-2.217-4.778l2.933-3.178c0.597-0.646,0.876-1.474,0.843-2.289s-0.376-1.618-1.023-2.215
			c-1.293-1.194-3.311-1.113-4.504,0.181l-2.934,3.177c-1.504-0.885-3.169-1.516-4.94-1.829l-0.172-4.311
			c-0.07-1.759-1.553-3.128-3.312-3.058S95.461,4.85,95.532,6.609z M102.972,33.168l-0.003-0.087
			c-0.567,0.269-1.157,0.477-1.754,0.653c-0.456,0.095-0.922,0.163-1.403,0.182c-4.716,0.188-8.706-3.495-8.894-8.211
			c-0.188-4.716,3.495-8.705,8.21-8.894c4.716-0.188,8.706,3.495,8.894,8.21c0.111,2.779-1.129,5.299-3.126,6.944
			c-0.004,0-0.007,0-0.011,0c-0.573,0.405-1.182,0.757-1.811,1.063l0.069,0.063C103.088,33.12,103.029,33.143,102.972,33.168z"/>
	</g>
	<g>
		<path fill="#DDDDDD" d="M314.711,181.082c-0.828,0-1.5-0.671-1.5-1.5v-16.667c0-0.829,0.672-1.5,1.5-1.5s1.5,0.671,1.5,1.5v16.667
			C316.211,180.411,315.539,181.082,314.711,181.082z"/>
		<path fill="#DDDDDD" d="M323.045,172.749h-16.667c-0.828,0-1.5-0.671-1.5-1.5s0.672-1.5,1.5-1.5h16.667c0.828,0,1.5,0.671,1.5,1.5
			S323.873,172.749,323.045,172.749z"/>
	</g>
	<g>
		<path fill="#DDDDDD" d="M336.505,152.505c-0.384,0-0.768-0.146-1.061-0.439c-0.586-0.585-0.586-1.536,0-2.121l11.785-11.785
			c0.586-0.586,1.535-0.586,2.121,0c0.586,0.585,0.586,1.536,0,2.121l-11.785,11.785
			C337.272,152.359,336.889,152.505,336.505,152.505z"/>
		<path fill="#DDDDDD" d="M348.29,152.505c-0.384,0-0.768-0.146-1.061-0.439l-11.785-11.785c-0.586-0.585-0.586-1.536,0-2.121
			c0.586-0.586,1.535-0.586,2.121,0l11.785,11.785c0.586,0.585,0.586,1.536,0,2.121C349.058,152.359,348.674,152.505,348.29,152.505
			z"/>
	</g>
	<g>
		<path fill="#DDDDDD" d="M70.717,287.456c-0.829,0-1.5-0.672-1.5-1.5v-16.667c0-0.828,0.671-1.5,1.5-1.5s1.5,0.672,1.5,1.5v16.667
			C72.217,286.784,71.546,287.456,70.717,287.456z"/>
		<path fill="#DDDDDD" d="M79.051,279.122H62.384c-0.829,0-1.5-0.672-1.5-1.5s0.671-1.5,1.5-1.5h16.667c0.829,0,1.5,0.672,1.5,1.5
			S79.879,279.122,79.051,279.122z"/>
	</g>
	<g>
		<path fill="#DDDDDD" d="M28.565,246.8c-0.384,0-0.768-0.146-1.061-0.439c-0.586-0.586-0.586-1.535,0-2.121l11.785-11.785
			c0.586-0.586,1.535-0.586,2.121,0s0.586,1.535,0,2.121l-11.785,11.785C29.333,246.654,28.949,246.8,28.565,246.8z"/>
		<path fill="#DDDDDD" d="M40.351,246.8c-0.384,0-0.768-0.146-1.061-0.439l-11.785-11.785c-0.586-0.586-0.586-1.535,0-2.121
			s1.535-0.586,2.121,0l11.785,11.785c0.586,0.586,0.586,1.535,0,2.121C41.118,246.654,40.734,246.8,40.351,246.8z"/>
	</g>
	<g>
		<path fill="#DDDDDD" d="M11.147,87.664c-0.829,0-1.5-0.671-1.5-1.5V69.498c0-0.829,0.671-1.5,1.5-1.5s1.5,0.671,1.5,1.5v16.667
			C12.647,86.993,11.976,87.664,11.147,87.664z"/>
		<path fill="#DDDDDD" d="M19.48,79.331H2.813c-0.829,0-1.5-0.671-1.5-1.5s0.671-1.5,1.5-1.5H19.48c0.829,0,1.5,0.671,1.5,1.5
			S20.309,79.331,19.48,79.331z"/>
	</g>
	<g>
		<path fill="#DDDDDD" d="M325.338,278.505c-0.828,0-1.5-0.672-1.5-1.5v-16.667c0-0.828,0.672-1.5,1.5-1.5s1.5,0.672,1.5,1.5v16.667
			C326.838,277.833,326.166,278.505,325.338,278.505z"/>
		<path fill="#DDDDDD" d="M333.672,270.172h-16.667c-0.828,0-1.5-0.672-1.5-1.5s0.672-1.5,1.5-1.5h16.667c0.828,0,1.5,0.672,1.5,1.5
			S334.5,270.172,333.672,270.172z"/>
	</g>
	<g>
		<path fill="#DDDDDD" d="M59.613,203.647c-0.384,0-0.768-0.146-1.061-0.439c-0.586-0.586-0.586-1.535,0-2.121l11.785-11.785
			c0.586-0.586,1.535-0.586,2.121,0c0.586,0.585,0.586,1.536,0,2.121l-11.785,11.785C60.381,203.5,59.997,203.647,59.613,203.647z"
			/>
		<path fill="#DDDDDD" d="M71.398,203.647c-0.384,0-0.768-0.146-1.061-0.439l-11.785-11.785c-0.586-0.585-0.586-1.536,0-2.121
			c0.586-0.586,1.535-0.586,2.121,0l11.785,11.785c0.586,0.586,0.586,1.535,0,2.121C72.166,203.5,71.782,203.647,71.398,203.647z"/>
	</g>
	<g>
		<path fill="#DDDDDD" d="M329.246,82.777c-0.384,0-0.768-0.146-1.061-0.439c-0.586-0.585-0.586-1.536,0-2.121l11.785-11.785
			c0.586-0.586,1.535-0.586,2.121,0c0.586,0.585,0.586,1.536,0,2.121l-11.785,11.785C330.014,82.63,329.63,82.777,329.246,82.777z"
			/>
		<path fill="#DDDDDD" d="M341.031,82.777c-0.384,0-0.768-0.146-1.061-0.439l-11.785-11.785c-0.586-0.585-0.586-1.536,0-2.121
			c0.586-0.586,1.535-0.586,2.121,0l11.785,11.785c0.586,0.585,0.586,1.536,0,2.121C341.799,82.63,341.415,82.777,341.031,82.777z"
			/>
	</g>
	<ellipse fill="#DDDDDD" cx="191.633" cy="368.283" rx="156.063" ry="9.269"/>
	<g>
		<polygon fill="#2C3A45" points="187.185,11.675 228.332,73.581 304.324,86.926 262.437,23.538 		"/>
		<polygon fill="#2C3A45" points="187.185,11.675 186.072,12.787 303.212,88.038 304.324,86.926 		"/>
		<polygon fill="#1D262D" points="186.072,12.787 227.22,74.693 303.212,88.038 261.323,24.649 		"/>
		<path fill="#2C3A45" d="M272.445,69.129l-8.241,13.479l-11.032,18.038l-56.717-37.077c0.457-1.057,7.985-11.632,14.001-20.018
			c4.104-5.694,7.497-10.375,7.497-10.375C243.152,33.509,261.357,45.419,272.445,69.129z"/>
		<path fill="#415666" d="M229.949,34.313c-3.807-0.698-7.802-1.082-11.996-1.137c0,0-3.393,4.681-7.497,10.375
			c-6.016,8.385-13.544,18.96-14.001,20.018l9.344,6.108C213.491,57.798,221.296,45.518,229.949,34.313z"/>
		<path opacity="0.49" fill="#788B9C" d="M272.445,69.129l-8.241,13.479c-0.033-0.101-0.067-0.212-0.101-0.312
			c-11.121-37.077-53.568-38.189-53.568-38.189l-0.079-0.556c4.104-5.694,7.497-10.375,7.497-10.375
			C243.152,33.509,261.357,45.419,272.445,69.129z"/>
	</g>
	<g>
		<g>
			<path fill="#788B9C" d="M189.887,285.062h-17.265c-6.366,0-11.525-5.16-11.525-11.524v-15.981c0-6.364,5.16-11.525,11.525-11.525
				h17.265c6.365,0,11.524,5.161,11.524,11.525v15.981C201.411,279.902,196.252,285.062,189.887,285.062z"/>
			<path fill="#A5B7C6" d="M200.637,278.217h-38.766c-4.914,0-8.897-3.982-8.897-8.897v-36.964c0-4.914,3.983-8.896,8.897-8.896
				h38.766c4.913,0,8.896,3.982,8.896,8.896v36.964C209.533,274.235,205.55,278.217,200.637,278.217z"/>
			<path fill="#FAC408" d="M261.71,135.317c0-45.699-38.101-82.499-84.266-80.369c-40.999,1.891-74.364,35.016-76.531,76.002
				c-1.812,34.271,17.846,64.154,46.717,77.458v21.295c0,5.305,4.301,9.607,9.607,9.607h48.035c5.305,0,9.604-4.303,9.604-9.607
				v-21.295C242.515,195.672,261.71,167.745,261.71,135.317z"/>
		</g>
		<path opacity="0.54" fill="#FFE736" d="M209.89,211.665v18.071c0,0-0.834,5.004-8.063,5.004s-17.793,0-17.793,0
			S204.329,229.736,209.89,211.665z"/>
		<path opacity="0.54" fill="#FFE736" d="M212.752,69.432c-35.918-16.708-78.581-1.135-95.29,34.784
			C146.967,79.15,178.922,68.697,212.752,69.432"/>
		
			<text transform="matrix(1 0 0 1 147.8687 193.7832)" display="none" fill="#FFFFFF" font-family="'Roboto-Regular'" font-size="148.549">?</text>
	</g>
	<g>
		<rect x="155.305" y="242.807" fill="#788B9C" width="50.137" height="0.918"/>
		<rect x="155.305" y="246.144" fill="#788B9C" width="50.137" height="0.919"/>
		<rect x="155.305" y="249.479" fill="#788B9C" width="50.137" height="0.919"/>
		<rect x="155.305" y="252.816" fill="#788B9C" width="50.137" height="0.919"/>
		<rect x="155.305" y="256.152" fill="#788B9C" width="50.137" height="0.919"/>
		<rect x="155.305" y="259.489" fill="#788B9C" width="50.137" height="0.919"/>
		<rect x="155.305" y="262.825" fill="#788B9C" width="50.137" height="0.919"/>
		<rect x="155.305" y="266.161" fill="#788B9C" width="50.137" height="0.919"/>
		<rect x="155.305" y="269.498" fill="#788B9C" width="50.137" height="0.919"/>
		<rect x="155.305" y="272.833" fill="#788B9C" width="50.137" height="0.919"/>
	</g>
	<path opacity="0.51" fill="#788B9C" d="M205.441,243.547v24.107c0,0.004,0,0.004,0,0.008c-0.004,0.092-0.331,6.278-7.507,6.278
		h-10.1c-0.104,0-0.187-0.082-0.187-0.186v-29.94c0-0.101,0.083-0.185,0.183-0.186l17.422-0.268
		C205.356,243.361,205.441,243.444,205.441,243.547z"/>
	<g>
		<g>
			<path fill="#E3D9D3" d="M254.375,308.476h-98.96c-1.073,0-1.943-0.871-1.943-1.943v-20.456c0-1.071,0.87-1.941,1.943-1.941h98.96
				c1.072,0,1.942,0.87,1.942,1.941v20.456C256.317,307.605,255.447,308.476,254.375,308.476z"/>
			<path fill="#382F9C" d="M256.599,288.022h-98.96c-1.072,0-1.943-0.871-1.943-1.945l0,0c0-1.071,0.871-1.941,1.943-1.941h98.96
				c1.073,0,1.942,0.87,1.942,1.941l0,0C258.541,287.151,257.672,288.022,256.599,288.022z"/>
			<path fill="#382F9C" d="M256.599,304.702h-98.96c-1.072,0-1.943-0.87-1.943-1.943l0,0c0-1.071,0.871-1.941,1.943-1.941h98.96
				c1.073,0,1.942,0.87,1.942,1.941l0,0C258.541,303.832,257.672,304.702,256.599,304.702z"/>
			<path fill="#D4D3CF" d="M273.715,368.468H135.531c-1.073,0-1.942-0.87-1.942-1.943v-20.454c0-1.072,0.869-1.942,1.942-1.942
				h138.184c1.073,0,1.943,0.87,1.943,1.942v20.454C275.658,367.598,274.788,368.468,273.715,368.468z"/>
			<path fill="#382F9C" d="M277.02,346.783H134.142c-0.305,0-0.553-0.248-0.553-0.553v-1.549c0-0.305,0.248-0.553,0.553-0.553
				H277.02c0.305,0,0.552,0.248,0.552,0.553v1.549C277.571,346.535,277.324,346.783,277.02,346.783z"/>
			<path fill="#382F9C" d="M277.02,368.283H134.142c-0.305,0-0.553-0.248-0.553-0.553v-1.548c0-0.306,0.248-0.554,0.553-0.554
				H277.02c0.305,0,0.552,0.248,0.552,0.554v1.548C277.571,368.035,277.324,368.283,277.02,368.283z"/>
			<path fill="#E3D9D3" d="M264.316,322.532H145.13c-1.073,0-1.943-0.87-1.943-1.943v-10.17c0-1.072,0.87-1.942,1.943-1.942h119.186
				c1.073,0,1.942,0.87,1.942,1.942v10.17C266.259,321.662,265.39,322.532,264.316,322.532z"/>
			<path fill="#982585" d="M266.692,310.64H144.979c-0.375,0-0.679-0.305-0.679-0.679v-0.807c0-0.375,0.304-0.679,0.679-0.679
				h121.714c0.375,0,0.679,0.304,0.679,0.679v0.807C267.371,310.335,267.067,310.64,266.692,310.64z"/>
			<path fill="#982585" d="M266.692,322.503H144.979c-0.375,0-0.679-0.305-0.679-0.68v-0.806c0-0.377,0.304-0.681,0.679-0.681
				h121.714c0.375,0,0.679,0.304,0.679,0.681v0.806C267.371,322.199,267.067,322.503,266.692,322.503z"/>
			<path fill="#D4D3CF" d="M264.167,304.59h-117.86c-0.271,0-0.491,0.221-0.491,0.491v2.902c0,0.271,0.22,0.492,0.491,0.492h117.86
				c0.273,0,0.492-0.222,0.492-0.492v-2.902C264.659,304.811,264.44,304.59,264.167,304.59z"/>
			<path fill="#E3D9D3" d="M266.487,344.128H148.215c-1.072,0-1.943-0.869-1.943-1.943v-15.331c0-1.072,0.871-1.942,1.943-1.942
				h118.272c1.072,0,1.942,0.87,1.942,1.942v15.331C268.43,343.259,267.56,344.128,266.487,344.128z"/>
			<path fill="#B63D97" d="M268.088,344.128H148.215c-1.072,0-1.943-0.869-1.943-1.943l0,0c0-1.072,0.871-1.942,1.943-1.942h119.873
				c1.072,0,1.942,0.87,1.942,1.942l0,0C270.03,343.259,269.16,344.128,268.088,344.128z"/>
			<path fill="#B63D97" d="M268.088,326.417H148.215c-1.072,0-1.943-0.871-1.943-1.943l0,0c0-1.074,0.871-1.942,1.943-1.942h119.873
				c1.072,0,1.942,0.868,1.942,1.942l0,0C270.03,325.546,269.16,326.417,268.088,326.417z"/>
		</g>
		<g>
			<path fill="#382F9C" d="M205.721,308.476h-98.959c-1.073,0-1.944-0.871-1.944-1.943v-20.456c0-1.071,0.871-1.941,1.944-1.941
				h98.959c1.073,0,1.942,0.87,1.942,1.941v20.456C207.663,307.605,206.794,308.476,205.721,308.476z"/>
			<path fill="#382F9C" d="M226.976,368.468H86.878c-1.073,0-1.942-0.87-1.942-1.943v-20.454c0-1.072,0.869-1.942,1.942-1.942
				h140.098c1.073,0,1.942,0.87,1.942,1.942v20.454C228.918,367.598,228.049,368.468,226.976,368.468z"/>
			<path fill="#982585" d="M215.663,322.532H96.476c-1.072,0-1.943-0.87-1.943-1.943v-10.17c0-1.072,0.871-1.942,1.943-1.942
				h119.187c1.073,0,1.942,0.87,1.942,1.942v10.17C217.605,321.662,216.736,322.532,215.663,322.532z"/>
			<path fill="#A99FFF" d="M215.005,304.59H98.163c-0.553,0-1.001,0.448-1.001,1v1.884c0,0.554,0.449,1.002,1.001,1.002h116.842
				c0.552,0,1.001-0.448,1.001-1.002v-1.884C216.006,305.039,215.557,304.59,215.005,304.59z"/>
			<path fill="#B63D97" d="M219.434,344.128H99.562c-1.073,0-1.943-0.869-1.943-1.943v-17.711c0-1.074,0.87-1.942,1.943-1.942
				h119.872c1.073,0,1.943,0.868,1.943,1.942v17.711C221.377,343.259,220.507,344.128,219.434,344.128z"/>
			<rect x="102.312" y="308.554" fill="#E86C27" width="5.699" height="13.762"/>
			<rect x="107.176" y="322.316" fill="#FFFFFF" width="12.233" height="21.687"/>
			<rect x="125.808" y="326.209" fill="#FFFFFF" width="0.919" height="14.458"/>
			<rect x="96.982" y="356.525" fill="#FFFFFF" width="104.351" height="2.757"/>
			<rect x="112.834" y="312.123" fill="#FFFFFF" width="0.919" height="5.561"/>
			<rect x="107.652" y="304.524" fill="#EFD32E" width="2.756" height="3.893"/>
			<rect x="114.139" y="284.321" fill="#EFD32E" width="2.757" height="19.832"/>
		</g>
		<rect x="125.526" y="293.507" fill="#FFFFFF" width="66.17" height="2.756"/>
	</g>
	<g>
		<g>
			<path fill="#202A42" d="M295.36,321.177l-6.864,1.669l-6.49,8.347l9.733,2.504c0,0,6.841,1.561,6.956-1.763
				C298.74,330.658,297.955,326.015,295.36,321.177z"/>
		</g>
		<path fill="#982585" d="M291.956,314.274c-1.588,1.117-3.139,1.961-4.862,2.69c-1.698,0.714-3.549,1.235-5.517,1.259
			c-0.489,0.001-0.993-0.049-1.482-0.122c-0.49-0.112-1.01-0.221-1.398-0.371c-0.837-0.278-1.664-0.591-2.48-0.926
			c-1.635-0.684-3.204-1.432-4.72-2.454c-0.255-0.169-0.322-0.516-0.151-0.77c0.158-0.235,0.466-0.311,0.711-0.185l0.042,0.02
			c1.444,0.733,3.079,1.29,4.688,1.737c0.811,0.222,1.627,0.418,2.451,0.584c0.434,0.107,0.77,0.111,1.124,0.156
			c0.362,0.003,0.725-0.001,1.092-0.049c1.47-0.204,2.946-0.797,4.327-1.595c1.365-0.78,2.742-1.781,3.853-2.794l0.035-0.033
			c0.748-0.682,1.907-0.629,2.589,0.119c0.683,0.747,0.628,1.904-0.12,2.587C292.082,314.178,292.016,314.23,291.956,314.274z"/>
		<g>
			<path fill="#B63D97" d="M296.527,315.741c-0.202-1.469-0.193-2.986-0.131-4.488c-0.159,0.02-0.325,0.017-0.499-0.031
				c-0.789-0.219-1.236-1.203-0.781-1.923c0.003-0.003,0,0.007,0.001,0.006c0.007-0.016,0.014-0.03,0.02-0.045l-1.633,0.115
				c0,0-5.05,3.427-5.501,5.96c-0.339,1.898,0.105,5.172,0.348,6.693c1.44-0.287,2.987-0.42,4.413-0.388
				c0.008,0,0.014,0.004,0.021,0.004c0.036-0.315,0.124-0.625,0.295-0.932c0.299-0.534,0.817-1.185,1.445-1.306
				c0.33-0.063,0.684,0.044,0.925,0.258c0.256-0.127,0.529-0.159,0.78-0.1l0.661-3.203
				C296.703,316.229,296.566,316.026,296.527,315.741z"/>
		</g>
		<g>
			<rect x="292.896" y="300.962" fill="#FFCE88" width="2.909" height="11.128"/>
		</g>
		<path fill="#FFCE88" d="M289.862,300.244c-0.745,2.85-0.115,5.483,2.736,6.229c2.851,0.744,5.764-0.961,6.511-3.812
			c0.745-2.852-0.962-5.767-3.813-6.511C292.445,295.404,290.606,297.393,289.862,300.244z"/>
		<path fill="#202A42" d="M292.579,306.027c0,0,4.168-5.966,3.879-6.042c-1.366-0.357-6.834-1.785-6.834-1.785
			s2.67-5.451,9.561-1.615c4.306,2.397,4.961,8.922,2.613,11.162C300.389,309.093,292.579,306.027,292.579,306.027z"/>
		<path fill="#202A42" d="M288.087,332.255l-17.079-4.445l1.856-1.694l1.015,16.898c0.018,0.284-0.198,0.527-0.481,0.544
			c-0.262,0.017-0.49-0.167-0.536-0.42l-3.061-16.65c-0.147-0.802,0.383-1.571,1.185-1.719c0.173-0.031,0.346-0.031,0.51-0.005
			l0.162,0.029l17.396,2.97c1.252,0.214,2.094,1.401,1.88,2.653s-1.401,2.094-2.653,1.88
			C288.216,332.286,288.148,332.271,288.087,332.255z"/>
		<path fill="#202A42" d="M295.859,329.959l0.012,2.508c-0.003,0.854,0.027,1.623,0.044,2.428l0.098,4.801l0.225,10.056
			l-0.161-0.647l6.986,17.74c0.112,0.285-0.027,0.606-0.312,0.718c-0.263,0.104-0.556-0.008-0.688-0.249l-9.139-16.734
			c-0.088-0.161-0.137-0.33-0.15-0.502l-0.011-0.146l-0.784-10.05l-0.372-5.254l-0.319-5.123c-0.079-1.261,0.879-2.346,2.139-2.425
			c1.261-0.079,2.347,0.879,2.425,2.141c0.003,0.041,0.005,0.083,0.005,0.124L295.859,329.959z"/>
		<path fill="#B63D97" d="M298.224,310.346c1.375,2.177,2.644,4.339,3.813,6.644c0.577,1.159,1.131,2.326,1.561,3.675
			c0.104,0.346,0.202,0.694,0.266,1.112c0.051,0.408,0.148,0.864-0.093,1.62c-0.113,0.358-0.454,0.834-0.901,1.066
			c-0.341,0.164-0.525,0.177-0.801,0.253c-0.477,0.09-0.784,0.065-1.172,0.09c-2.709-0.098-5.12-0.598-7.604-1.06
			c-2.463-0.49-4.898-1.034-7.333-1.625c-0.298-0.072-0.482-0.373-0.409-0.672c0.067-0.281,0.347-0.46,0.627-0.42
			c2.452,0.358,4.922,0.673,7.383,0.928c2.44,0.229,4.976,0.48,7.251,0.343c0.229-0.038,0.555-0.062,0.681-0.113
			c0.021-0.019,0.152-0.054,0.087-0.023c-0.183,0.075-0.312,0.295-0.341,0.354c-0.05,0.16-0.021-0.029-0.093-0.225
			c-0.048-0.193-0.142-0.441-0.239-0.683c-0.422-0.992-1.029-2.04-1.661-3.055c-1.281-2.03-2.73-4.045-4.203-5.954l-0.017-0.021
			c-0.657-0.853-0.5-2.081,0.354-2.739s2.08-0.502,2.739,0.354C298.154,310.244,298.191,310.296,298.224,310.346z"/>
		<path fill="#B63D97" d="M294.431,309.25c1.905,0,3.893,1.041,3.893,4.239c0,3.197-2.963,7.688-2.963,7.688h-5.586l1.598-9.494
			L294.431,309.25z"/>
		<path fill="#982585" d="M296.412,309.424l-0.626-1.321l-2.397,1.008c0,0-1.078,2.329-0.974,2.294S296.412,309.424,296.412,309.424
			z"/>
		<polygon fill="#982585" points="292.832,309.007 292.103,309.111 290.607,311.265 291.303,311.057 292.867,309.806 		"/>
		<polygon fill="#B63D97" points="295.36,321.177 288.496,322.846 288.105,320.024 296.063,319.849 		"/>
		<path fill="#382F9C" d="M274.576,343.911c0-0.277-0.277-4.264-0.277-4.264l-3.707-0.093l1.574,3.337c0,0-1.297,0.277-1.39,1.02
			C270.684,344.651,274.576,343.911,274.576,343.911z"/>
		<path fill="#382F9C" d="M303.582,366.244c0,0-0.647-2.779-0.926-2.688c-0.278,0.094-3.708,1.298-3.708,1.298l3.059,3.521
			c0,0-1.575,0.371-1.667,1.02c-0.094,0.649,3.613,0,3.613,0L303.582,366.244z"/>
		<path fill="#FFCE88" d="M286.508,321.066l-0.139,1.25l-2.851,0.279c0,0-0.417-2.711,0.835-2.433
			C285.604,320.441,286.508,321.066,286.508,321.066z"/>
		<path fill="#FFCE88" d="M271.496,314.35c-0.488,0.044-2.712-1.485-2.712-1.485s0.694-2.641,2.016-1.878
			c1.32,0.766,1.298,2.429,1.298,2.429L271.496,314.35z"/>
		<path fill="#FFCE88" d="M289.862,300.244c-0.297,0.248-1.896,1.152-1.896,1.152l2.155,1.39l0.694-2.433L289.862,300.244z"/>
	</g>
	<g>
		<path fill="#B63D97" d="M136.206,253.734c1.201,1.119,2.374,1.962,3.677,2.691c1.284,0.714,2.684,1.234,4.172,1.259
			c0.37,0.002,0.75-0.05,1.122-0.121c0.371-0.112,0.763-0.221,1.057-0.373c0.633-0.277,1.259-0.588,1.875-0.925
			c1.237-0.684,2.423-1.431,3.569-2.452c0.193-0.172,0.244-0.517,0.114-0.771c-0.12-0.235-0.352-0.312-0.539-0.187l-0.03,0.021
			c-1.093,0.732-2.33,1.29-3.545,1.736c-0.614,0.222-1.231,0.419-1.854,0.584c-0.327,0.106-0.582,0.112-0.851,0.156
			c-0.272,0.004-0.547-0.001-0.824-0.049c-1.113-0.204-2.228-0.795-3.272-1.595c-1.034-0.78-2.074-1.781-2.913-2.794l-0.028-0.033
			c-0.565-0.683-1.441-0.629-1.958,0.118c-0.515,0.746-0.475,1.907,0.091,2.589C136.111,253.639,136.161,253.691,136.206,253.734z"
			/>
		<g>
			<path fill="#982585" d="M132.937,255.965c0.201-1.468,0.193-2.984,0.13-4.487c0.158,0.021,0.324,0.016,0.498-0.031
				c0.792-0.219,1.237-1.204,0.782-1.923c-0.003-0.004,0,0.006,0,0.005c-0.007-0.016-0.014-0.028-0.02-0.044l1.632,0.115
				c0,0,2.826,1.202,3.277,3.737c0.339,1.897,2.119,7.395,1.875,8.916c-1.439-0.287-2.987-0.419-4.412-0.388
				c-0.008,0-0.014,0.004-0.021,0.004c-0.038-0.316-0.125-0.626-0.295-0.931c-0.299-0.536-0.817-1.186-1.446-1.306
				c-0.33-0.064-0.683,0.044-0.923,0.256c-0.258-0.127-0.529-0.159-0.781-0.099l-0.662-3.203
				C132.76,256.455,132.898,256.25,132.937,255.965z"/>
		</g>
		<g>
			<rect x="133.658" y="241.188" fill="#FFCE88" width="2.91" height="11.128"/>
		</g>
		<path fill="#FFCE88" d="M139.602,240.468c0.745,2.851,0.114,5.484-2.736,6.229c-2.851,0.745-5.766-0.961-6.511-3.813
			c-0.745-2.85,0.962-5.765,3.812-6.51C137.018,235.63,138.856,237.62,139.602,240.468z"/>
		<path fill="#202A42" d="M137.673,275.819c0.139-0.209,5.63-4.38,5.63-4.38l-1.32-0.695l-4.518-2.918l-2.225,3.753l2.572,3.962"/>
		<path fill="#202A42" d="M136.796,267.989l17.396-2.97l0.156-0.027c0.804-0.137,1.566,0.403,1.704,1.206
			c0.03,0.174,0.026,0.352-0.003,0.517l-3.062,16.649c-0.052,0.278-0.32,0.464-0.599,0.412c-0.258-0.047-0.436-0.28-0.42-0.536
			l1.017-16.899l1.856,1.695l-17.079,4.445c-1.229,0.319-2.485-0.417-2.805-1.646c-0.319-1.229,0.417-2.483,1.646-2.804
			C136.667,268.014,136.734,268,136.796,267.989z"/>
		<path fill="#202A42" d="M138.172,269.689c0,0.268-0.01,1.297-0.045,1.569l-0.084,1.231l-0.18,2.444l-0.378,4.875l-0.783,9.738
			l-0.011,0.145c-0.015,0.187-0.074,0.365-0.159,0.52l-9.134,16.195c-0.15,0.267-0.487,0.36-0.753,0.211
			c-0.245-0.139-0.344-0.436-0.241-0.689l6.993-17.229l-0.17,0.663l0.226-9.756l0.099-4.874l0.041-2.431l0.014-1.206
			c-0.011-0.542,0.028-0.325,0.003-0.87l-0.02-0.436c-0.056-1.264,0.924-2.334,2.188-2.391s2.335,0.923,2.392,2.188
			C138.171,269.618,138.172,269.658,138.172,269.689z"/>
		<path fill="#B63D97" d="M132.63,250.432c-1.375,2.177-2.645,4.339-3.814,6.646c-0.577,1.158-1.131,2.324-1.561,3.673
			c-0.103,0.347-0.202,0.694-0.265,1.114c-0.05,0.407-0.147,0.864,0.093,1.619c0.113,0.358,0.452,0.834,0.902,1.067
			c0.341,0.162,0.527,0.176,0.8,0.251c0.478,0.091,0.783,0.066,1.172,0.091c2.709-0.099,5.12-0.598,7.604-1.061
			c2.462-0.49,4.899-1.033,7.333-1.624c0.299-0.073,0.482-0.373,0.41-0.673c-0.068-0.281-0.347-0.46-0.626-0.42
			c-2.454,0.358-4.923,0.674-7.384,0.929c-2.441,0.229-4.975,0.479-7.251,0.344c-0.229-0.04-0.554-0.063-0.679-0.115
			c-0.021-0.018-0.153-0.053-0.087-0.022c0.182,0.074,0.312,0.294,0.34,0.354c0.051,0.159,0.021-0.029,0.093-0.226
			c0.047-0.193,0.141-0.44,0.24-0.683c0.421-0.992,1.028-2.04,1.662-3.055c1.28-2.03,2.73-4.044,4.202-5.953l0.016-0.021
			c0.659-0.854,0.5-2.081-0.354-2.739c-0.854-0.659-2.08-0.501-2.74,0.354C132.699,250.331,132.663,250.382,132.63,250.432z"/>
		<path fill="#982585" d="M135.033,249.476c-1.904,0-3.893,1.042-3.893,4.239s2.965,7.688,2.965,7.688h5.584l-1.598-9.496
			L135.033,249.476z"/>
		<path fill="#B63D97" d="M153.683,283.117l0.067-0.143c-0.804-0.002-1.607,0.026-2.411,0.037c-0.039,0.582-0.066,1.037-0.066,1.124
			c0,0,3.892,0.741,3.8,0C154.98,283.395,153.683,283.117,153.683,283.117z"/>
		<path fill="#B63D97" d="M127.456,307.425l0.275-0.307c-0.661-0.14-1.304-0.311-1.937-0.524c-0.021-0.002-0.042-0.006-0.062-0.009
			l-0.223,1.83c0,0,3.708,0.628,3.615,0C129.032,307.785,127.456,307.425,127.456,307.425z"/>
		<path fill="#FFCE88" d="M144.346,261.153l0.139,1.251l2.849,0.278c0,0,0.418-2.711-0.834-2.433
			C145.25,260.527,144.346,261.153,144.346,261.153z"/>
		<path fill="#FFCE88" d="M151.678,253.813c0.369,0.042,2.051-1.488,2.051-1.488s-0.526-2.641-1.524-1.876s-0.981,2.429-0.981,2.429
			L151.678,253.813z"/>
		<path fill="#FFCE88" d="M139.602,240.538c0.296,0.249,1.894,1.152,1.894,1.152l-2.154,1.392l-0.695-2.433L139.602,240.538z"/>
		<path fill="#202A42" d="M130.005,237.985c0,0,3.058-3.059,6.951-2.318c3.893,0.742,1.204,3.708-0.185,4.912
			c-1.391,1.204-4.819,5.006-4.819,5.006S126.391,241.599,130.005,237.985z"/>
		<path fill="#202A42" d="M133.503,246.556c0.196,0.072,0.486-7.158,0.486-7.158l-4.587,3.196
			C129.402,242.594,130.306,245.375,133.503,246.556z"/>
		<path fill="#982585" d="M131.696,255.662c0.07,0.168,0.347,13.165,0.347,13.165s3.615,0.336,6.812-0.167
			c3.197-0.505,4.518-1.793,4.518-1.793l-3.058-9.076L131.696,255.662z"/>
		<polygon fill="#982585" points="133.435,249.684 133.573,248.155 136.909,248.711 136.84,251.561 133.781,250.449 		"/>
	</g>
</g>
<g id="DESIGNED_BY_FREEPIK">
</g>
</svg>
